<svg width="61" height="22" viewBox="0 0 61 22" fill="none" xmlns="http://www.w3.org/2000/svg">
<path d="M20.1445 19.7891H0.644531V17.3398H20.1445V19.7891ZM11.8242 18.3594H8.88281V13.2969H11.8242V18.3594ZM17.8945 9.27734H5.87109V12.9219H2.89453V6.93359H14.9414V4.61328H2.85938V2.21094H17.8945V9.27734ZM18.3984 14.1055H2.89453V11.6797H18.3984V14.1055ZM37.0312 5.19922H23.3906V2.78516H37.0312V5.19922ZM40.8398 19.3438H21.3867V16.918H40.8398V19.3438ZM38.4375 5.33984C38.4375 6.67578 38.4219 7.79297 38.3906 8.69141C38.3672 9.58203 38.3008 10.6094 38.1914 11.7734C38.0898 12.9375 37.918 14.2109 37.6758 15.5938L34.6406 15.3477C34.8984 14.0664 35.0859 12.8555 35.2031 11.7148C35.3203 10.5742 35.3906 9.54688 35.4141 8.63281C35.4375 7.71094 35.4492 6.61328 35.4492 5.33984V2.78516H38.4375V5.33984ZM59.9648 16.1797H56.9766V0.851562H59.9648V16.1797ZM60.5508 21.793H45.6797V19.3789H60.5508V21.793ZM48.7031 20.3633H45.6797V14.6445H48.7031V20.3633ZM48.2812 2.19922C49.3672 2.19922 50.3555 2.42969 51.2461 2.89062C52.1445 3.34375 52.8477 3.98437 53.3555 4.8125C53.8633 5.63281 54.1172 6.55078 54.1172 7.56641C54.1172 8.61328 53.8633 9.54688 53.3555 10.3672C52.8477 11.1875 52.1445 11.832 51.2461 12.3008C50.3555 12.7617 49.3672 12.9922 48.2812 12.9922C47.1953 12.9922 46.207 12.7617 45.3164 12.3008C44.4336 11.832 43.7344 11.1875 43.2188 10.3672C42.7031 9.54688 42.4453 8.61328 42.4453 7.56641C42.4453 6.55078 42.7031 5.63281 43.2188 4.8125C43.7344 3.98437 44.4336 3.34375 45.3164 2.89062C46.207 2.42969 47.1953 2.19922 48.2812 2.19922ZM48.2812 4.80078C47.7266 4.79297 47.2266 4.90234 46.7812 5.12891C46.3438 5.34766 45.9961 5.66797 45.7383 6.08984C45.4883 6.51172 45.3633 7.00391 45.3633 7.56641C45.3633 8.14453 45.4883 8.64844 45.7383 9.07812C45.9961 9.5 46.3438 9.82422 46.7812 10.0508C47.2266 10.2695 47.7266 10.3789 48.2812 10.3789C48.8281 10.3789 49.3164 10.2695 49.7461 10.0508C50.1836 9.82422 50.5273 9.5 50.7773 9.07812C51.0273 8.64844 51.1523 8.14453 51.1523 7.56641C51.1523 7.00391 51.0273 6.51172 50.7773 6.08984C50.5273 5.66797 50.1836 5.34766 49.7461 5.12891C49.3164 4.90234 48.8281 4.79297 48.2812 4.80078Z" fill="#D9D9D9"/>
</svg>
