<svg width="1644" height="563" viewBox="0 0 1644 563" fill="none" xmlns="http://www.w3.org/2000/svg">
<path d="M480.292 268.58V327.8H476.092C446.972 327.8 424.712 320.38 409.312 305.54C393.912 290.7 386.212 267.88 386.212 237.08V57.74H452.992V224.48C452.992 240.44 454.952 251.78 458.872 258.5C462.792 265.22 469.792 268.58 479.872 268.58H480.292ZM361.012 327.8H295.492V198.02H245.512V138.38H295.492V60.26H361.012V327.8ZM166.972 202.22C166.972 220.98 173.412 236.38 186.292 248.42C199.452 260.18 216.532 266.06 237.532 266.06V325.28C215.972 325.28 195.532 320.94 176.212 312.26C156.892 303.3 142.752 291.68 133.792 277.4C126.232 292.24 112.932 304.42 93.8923 313.94C74.8523 323.18 53.0123 327.8 28.3723 327.8H0.652266V268.58H28.3723C50.7723 268.58 67.8523 262.7 79.6123 250.94C91.3723 238.9 97.2523 222.66 97.2523 202.22V198.02H38.4523V138.38H228.292V198.02H166.972V202.22ZM316.912 353.84V432.8H452.152V492.02H282.472C272.112 492.02 263.572 488.94 256.852 482.78C250.412 476.9 247.192 469.06 247.192 459.26V353.84H316.912ZM883.345 268.58V327.8H874.105C845.265 327.8 822.865 319.96 806.905 304.28C790.945 288.6 782.965 264.8 782.965 232.88V208.94H717.445V149.3H782.965V57.74H852.685V220.28C852.685 237.64 854.505 250.1 858.145 257.66C862.065 264.94 868.645 268.58 877.885 268.58H883.345ZM588.085 253.88C588.085 258.92 589.065 262.7 591.025 265.22C593.265 267.46 596.765 268.58 601.525 268.58H715.345V327.8H479.305V268.58H522.145C519.625 265.5 518.365 261.3 518.365 255.98V114.86H697.285V170.3H588.085V193.4H693.505V242.96H588.085V253.88ZM1286.53 268.58V327.8H1277.29C1248.45 327.8 1226.05 319.96 1210.09 304.28C1194.13 288.6 1186.15 264.8 1186.15 232.88V200.54H1119.37V140.9H1186.15V57.74H1255.87V220.28C1255.87 237.64 1257.69 250.1 1261.33 257.66C1265.25 264.94 1271.83 268.58 1281.07 268.58H1286.53ZM990.428 253.88C990.428 258.92 991.408 262.7 993.368 265.22C995.608 267.46 999.108 268.58 1003.87 268.58H1118.53V327.8H882.488V268.58H926.168C923.648 265.78 922.388 261.58 922.388 255.98V187.94H1030.33V159.38H922.388V104.36H1063.09C1072.61 104.36 1080.87 107.02 1087.87 112.34C1095.15 117.38 1098.79 124.52 1098.79 133.76V237.5H990.428V253.88ZM1543.13 57.74H1612.85V205.58C1612.85 243.94 1621.25 264.94 1638.05 268.58H1643.51V327.8H1638.05C1607.53 327.8 1584.01 318.7 1567.49 300.5C1551.25 282.3 1543.13 255.14 1543.13 219.02V57.74ZM1285.67 268.58C1301.91 268.58 1316.47 264.52 1329.35 256.4C1342.51 248.28 1352.73 237.08 1360.01 222.8C1367.29 208.24 1370.93 191.86 1370.93 173.66V127.04H1441.49V173.66C1441.49 191.86 1445.27 208.1 1452.83 222.38C1460.67 236.38 1471.45 247.44 1485.17 255.56C1498.89 263.4 1514.43 267.32 1531.79 267.32V326.12C1505.19 326.12 1480.27 320.66 1457.03 309.74C1434.07 298.82 1417.27 284.54 1406.63 266.9C1396.55 285.1 1380.31 299.8 1357.91 311C1335.51 322.2 1311.43 327.8 1285.67 327.8V268.58Z" fill="#4D0099"/>
</svg>
