<svg width="456" height="456" viewBox="0 0 456 456" fill="none" xmlns="http://www.w3.org/2000/svg">
<path d="M455.999 455.367V455.999H342.749H229.498L342.749 258.631L455.419 455.367H455.999Z" fill="#BDAED9"/>
<path d="M229.362 228V456C102.681 456 0 353.929 0 228C0 102.071 102.681 0 229.362 0V228Z" fill="#B6A1F0"/>
<path d="M399.376 203.486V203.495C399.376 203.83 399.376 204.164 399.366 204.498C398.831 235.215 373.682 259.957 342.75 259.957C311.809 259.957 286.67 235.215 286.134 204.498C286.125 204.164 286.125 203.83 286.125 203.495V203.486C286.134 172.308 311.482 147.042 342.741 147.033H342.759C374.018 147.042 399.366 172.308 399.376 203.486Z" fill="white"/>
</svg>
