<svg width="329" height="87" viewBox="0 0 329 87" fill="none" xmlns="http://www.w3.org/2000/svg">
<path d="M96.1585 42.316V54.16H95.3185C89.4945 54.16 85.0425 52.676 81.9625 49.708C78.8825 46.74 77.3425 42.176 77.3425 36.016V0.147995H90.6985V33.496C90.6985 36.688 91.0905 38.956 91.8745 40.3C92.6585 41.644 94.0585 42.316 96.0745 42.316H96.1585ZM72.3025 54.16H59.1985V28.204H49.2025V16.276H59.1985V0.651999H72.3025V54.16ZM33.4945 29.044C33.4945 32.796 34.7825 35.876 37.3585 38.284C39.9905 40.636 43.4065 41.812 47.6065 41.812V53.656C43.2945 53.656 39.2065 52.788 35.3425 51.052C31.4785 49.26 28.6505 46.936 26.8585 44.08C25.3465 47.048 22.6865 49.484 18.8785 51.388C15.0705 53.236 10.7025 54.16 5.77445 54.16H0.230453V42.316H5.77445C10.2545 42.316 13.6705 41.14 16.0225 38.788C18.3745 36.38 19.5505 33.132 19.5505 29.044V28.204H7.79045V16.276H45.7585V28.204H33.4945V29.044ZM63.4825 59.368V75.16H90.5305V87.004H56.5945C54.5225 87.004 52.8145 86.388 51.4705 85.156C50.1825 83.98 49.5385 82.412 49.5385 80.452V59.368H63.4825ZM176.769 42.316V54.16H174.921C169.153 54.16 164.673 52.592 161.481 49.456C158.289 46.32 156.693 41.56 156.693 35.176V30.388H143.589V18.46H156.693V0.147995H170.637V32.656C170.637 36.128 171.001 38.62 171.729 40.132C172.513 41.588 173.829 42.316 175.677 42.316H176.769ZM117.717 39.376C117.717 40.384 117.913 41.14 118.305 41.644C118.753 42.092 119.453 42.316 120.405 42.316H143.169V54.16H95.9609V42.316H104.529C104.025 41.7 103.773 40.86 103.773 39.796V11.572H139.557V22.66H117.717V27.28H138.801V37.192H117.717V39.376ZM257.406 42.316V54.16H255.558C249.79 54.16 245.31 52.592 242.118 49.456C238.926 46.32 237.33 41.56 237.33 35.176V28.708H223.974V16.78H237.33V0.147995H251.274V32.656C251.274 36.128 251.638 38.62 252.366 40.132C253.15 41.588 254.466 42.316 256.314 42.316H257.406ZM198.186 39.376C198.186 40.384 198.382 41.14 198.774 41.644C199.222 42.092 199.922 42.316 200.874 42.316H223.806V54.16H176.598V42.316H185.334C184.83 41.756 184.578 40.916 184.578 39.796V26.188H206.166V20.476H184.578V9.472H212.718C214.622 9.472 216.274 10.004 217.674 11.068C219.13 12.076 219.858 13.504 219.858 15.352V36.1H198.186V39.376ZM308.726 0.147995H322.67V29.716C322.67 37.388 324.35 41.588 327.71 42.316H328.802V54.16H327.71C321.606 54.16 316.902 52.34 313.598 48.7C310.35 45.06 308.726 39.628 308.726 32.404V0.147995ZM257.234 42.316C260.482 42.316 263.394 41.504 265.97 39.88C268.602 38.256 270.646 36.016 272.102 33.16C273.558 30.248 274.286 26.972 274.286 23.332V14.008H288.398V23.332C288.398 26.972 289.154 30.22 290.666 33.076C292.234 35.876 294.39 38.088 297.134 39.712C299.878 41.28 302.986 42.064 306.458 42.064V53.824C301.138 53.824 296.154 52.732 291.506 50.548C286.914 48.364 283.554 45.508 281.426 41.98C279.41 45.62 276.162 48.56 271.682 50.8C267.202 53.04 262.386 54.16 257.234 54.16V42.316Z" fill="white"/>
</svg>
