<svg width="111" height="30" viewBox="0 0 111 30" fill="none" xmlns="http://www.w3.org/2000/svg">
<path d="M32.948 14.772V18.72H32.668C30.7267 18.72 29.2427 18.2253 28.216 17.236C27.1893 16.2467 26.676 14.7253 26.676 12.672V0.715998H31.128V11.832C31.128 12.896 31.2587 13.652 31.52 14.1C31.7813 14.548 32.248 14.772 32.92 14.772H32.948ZM24.996 18.72H20.628V10.068H17.296V6.092H20.628V0.884H24.996V18.72ZM12.06 10.348C12.06 11.5987 12.4893 12.6253 13.348 13.428C14.2253 14.212 15.364 14.604 16.764 14.604V18.552C15.3267 18.552 13.964 18.2627 12.676 17.684C11.388 17.0867 10.4453 16.312 9.848 15.36C9.344 16.3493 8.45733 17.1613 7.188 17.796C5.91867 18.412 4.46267 18.72 2.82 18.72H0.972V14.772H2.82C4.31333 14.772 5.452 14.38 6.236 13.596C7.02 12.7933 7.412 11.7107 7.412 10.348V10.068H3.492V6.092H16.148V10.068H12.06V10.348ZM22.056 20.456V25.72H31.072V29.668H19.76C19.0693 29.668 18.5 29.4627 18.052 29.052C17.6227 28.66 17.408 28.1373 17.408 27.484V20.456H22.056ZM59.8182 14.772V18.72H59.2022C57.2795 18.72 55.7862 18.1973 54.7222 17.152C53.6582 16.1067 53.1262 14.52 53.1262 12.392V10.796H48.7582V6.82H53.1262V0.715998H57.7742V11.552C57.7742 12.7093 57.8955 13.54 58.1382 14.044C58.3995 14.5293 58.8382 14.772 59.4542 14.772H59.8182ZM40.1342 13.792C40.1342 14.128 40.1995 14.38 40.3302 14.548C40.4795 14.6973 40.7128 14.772 41.0302 14.772H48.6182V18.72H32.8822V14.772H35.7382C35.5702 14.5667 35.4862 14.2867 35.4862 13.932V4.524H47.4142V8.22H40.1342V9.76H47.1622V13.064H40.1342V13.792ZM86.6971 14.772V18.72H86.0811C84.1584 18.72 82.6651 18.1973 81.6011 17.152C80.5371 16.1067 80.0051 14.52 80.0051 12.392V10.236H75.5531V6.26H80.0051V0.715998H84.6531V11.552C84.6531 12.7093 84.7744 13.54 85.0171 14.044C85.2784 14.5293 85.7171 14.772 86.3331 14.772H86.6971ZM66.9571 13.792C66.9571 14.128 67.0224 14.38 67.1531 14.548C67.3024 14.6973 67.5357 14.772 67.8531 14.772H75.4971V18.72H59.7611V14.772H62.6731C62.5051 14.5853 62.4211 14.3053 62.4211 13.932V9.396H69.6171V7.492H62.4211V3.824H71.8011C72.4357 3.824 72.9864 4.00133 73.4531 4.356C73.9384 4.692 74.1811 5.168 74.1811 5.784V12.7H66.9571V13.792ZM103.804 0.715998H108.452V10.572C108.452 13.1293 109.012 14.5293 110.132 14.772H110.496V18.72H110.132C108.097 18.72 106.529 18.1133 105.428 16.9C104.345 15.6867 103.804 13.876 103.804 11.468V0.715998ZM86.64 14.772C87.7226 14.772 88.6933 14.5013 89.552 13.96C90.4293 13.4187 91.1106 12.672 91.596 11.72C92.0813 10.7493 92.324 9.65733 92.324 8.444V5.336H97.028V8.444C97.028 9.65733 97.28 10.74 97.784 11.692C98.3066 12.6253 99.0253 13.3627 99.94 13.904C100.855 14.4267 101.891 14.688 103.048 14.688V18.608C101.275 18.608 99.6133 18.244 98.064 17.516C96.5333 16.788 95.4133 15.836 94.704 14.66C94.032 15.8733 92.9493 16.8533 91.456 17.6C89.9626 18.3467 88.3573 18.72 86.64 18.72V14.772Z" fill="#4D0099"/>
</svg>
